<svg xmlns="http://www.w3.org/2000/svg" width="720" height="420" viewBox="0 0 720 420">
  <rect width="100%" height="100%" fill="#ffffff" />
  <text x="360.0" y="34" text-anchor="middle" font-size="22" font-weight="700" fill="#111827">Monthly Value Trend</text>
  <line x1="64" y1="356" x2="656" y2="356" stroke="#cbd5e1" />
  <line x1="64" y1="64" x2="64" y2="356" stroke="#cbd5e1" />
  <text x="24" y="68" font-size="12" fill="#64748b">241</text>
  <text x="24" y="360" font-size="12" fill="#64748b">120</text>
  <polyline points="64.0,356.0 117.8,312.6 171.6,327.0 225.5,269.1 279.3,232.9 333.1,240.2 386.9,199.1 440.7,160.5 494.5,172.6 548.4,129.2 602.2,95.4 656.0,64.0" fill="none" stroke="#2563eb" stroke-width="4" stroke-linecap="round" stroke-linejoin="round" />
  <circle cx="64.0" cy="356.0" r="5" fill="#2563eb" /><text x="64.0" y="344.0" text-anchor="middle" font-size="12" fill="#1f2937">120</text><text x="64.0" y="384.0" text-anchor="middle" font-size="11" fill="#64748b">01월</text><circle cx="117.8" cy="312.6" r="5" fill="#2563eb" /><text x="117.8" y="300.6" text-anchor="middle" font-size="12" fill="#1f2937">138</text><text x="117.8" y="384.0" text-anchor="middle" font-size="11" fill="#64748b">02월</text><circle cx="171.6" cy="327.0" r="5" fill="#2563eb" /><text x="171.6" y="315.0" text-anchor="middle" font-size="12" fill="#1f2937">132</text><text x="171.6" y="384.0" text-anchor="middle" font-size="11" fill="#64748b">03월</text><circle cx="225.5" cy="269.1" r="5" fill="#2563eb" /><text x="225.5" y="257.1" text-anchor="middle" font-size="12" fill="#1f2937">156</text><text x="225.5" y="384.0" text-anchor="middle" font-size="11" fill="#64748b">04월</text><circle cx="279.3" cy="232.9" r="5" fill="#2563eb" /><text x="279.3" y="220.9" text-anchor="middle" font-size="12" fill="#1f2937">171</text><text x="279.3" y="384.0" text-anchor="middle" font-size="11" fill="#64748b">05월</text><circle cx="333.1" cy="240.2" r="5" fill="#2563eb" /><text x="333.1" y="228.2" text-anchor="middle" font-size="12" fill="#1f2937">168</text><text x="333.1" y="384.0" text-anchor="middle" font-size="11" fill="#64748b">06월</text><circle cx="386.9" cy="199.1" r="5" fill="#2563eb" /><text x="386.9" y="187.1" text-anchor="middle" font-size="12" fill="#1f2937">185</text><text x="386.9" y="384.0" text-anchor="middle" font-size="11" fill="#64748b">07월</text><circle cx="440.7" cy="160.5" r="5" fill="#2563eb" /><text x="440.7" y="148.5" text-anchor="middle" font-size="12" fill="#1f2937">201</text><text x="440.7" y="384.0" text-anchor="middle" font-size="11" fill="#64748b">08월</text><circle cx="494.5" cy="172.6" r="5" fill="#2563eb" /><text x="494.5" y="160.6" text-anchor="middle" font-size="12" fill="#1f2937">196</text><text x="494.5" y="384.0" text-anchor="middle" font-size="11" fill="#64748b">09월</text><circle cx="548.4" cy="129.2" r="5" fill="#2563eb" /><text x="548.4" y="117.2" text-anchor="middle" font-size="12" fill="#1f2937">214</text><text x="548.4" y="384.0" text-anchor="middle" font-size="11" fill="#64748b">10월</text><circle cx="602.2" cy="95.4" r="5" fill="#2563eb" /><text x="602.2" y="83.4" text-anchor="middle" font-size="12" fill="#1f2937">228</text><text x="602.2" y="384.0" text-anchor="middle" font-size="11" fill="#64748b">11월</text><circle cx="656.0" cy="64.0" r="5" fill="#2563eb" /><text x="656.0" y="52.0" text-anchor="middle" font-size="12" fill="#1f2937">241</text><text x="656.0" y="384.0" text-anchor="middle" font-size="11" fill="#64748b">12월</text>
</svg>
